<svg width="173" height="134" viewBox="0 0 173 134" fill="none" xmlns="http://www.w3.org/2000/svg">
<rect width="173" height="134" fill="#F0F0F0"/>
<path d="M83.3182 40.5455V58H80.8977L72.0256 45.1989H71.8636V58H69.2301V40.5455H71.6676L80.5483 53.3636H80.7102V40.5455H83.3182ZM102.322 49.2727C102.322 51.1364 101.981 52.7386 101.299 54.0795C100.617 55.4148 99.6825 56.4432 98.495 57.1648C97.3132 57.8807 95.9695 58.2386 94.4638 58.2386C92.9524 58.2386 91.603 57.8807 90.4155 57.1648C89.2337 56.4432 88.3018 55.4119 87.62 54.071C86.9382 52.7301 86.5973 51.1307 86.5973 49.2727C86.5973 47.4091 86.9382 45.8097 87.62 44.4744C88.3018 43.1335 89.2337 42.1051 90.4155 41.3892C91.603 40.6676 92.9524 40.3068 94.4638 40.3068C95.9695 40.3068 97.3132 40.6676 98.495 41.3892C99.6825 42.1051 100.617 43.1335 101.299 44.4744C101.981 45.8097 102.322 47.4091 102.322 49.2727ZM99.7138 49.2727C99.7138 47.8523 99.4837 46.6562 99.0234 45.6847C98.5689 44.7074 97.9439 43.9688 97.1484 43.4688C96.3587 42.9631 95.4638 42.7102 94.4638 42.7102C93.4581 42.7102 92.5604 42.9631 91.7706 43.4688C90.9808 43.9688 90.3558 44.7074 89.8956 45.6847C89.4411 46.6562 89.2138 47.8523 89.2138 49.2727C89.2138 50.6932 89.4411 51.892 89.8956 52.8693C90.3558 53.8409 90.9808 54.5795 91.7706 55.0852C92.5604 55.5852 93.4581 55.8352 94.4638 55.8352C95.4638 55.8352 96.3587 55.5852 97.1484 55.0852C97.9439 54.5795 98.5689 53.8409 99.0234 52.8693C99.4837 51.892 99.7138 50.6932 99.7138 49.2727ZM51.8363 76.5455V94H49.2028V76.5455H51.8363ZM55.6715 76.5455H58.8675L64.4244 90.1136H64.6289L70.1857 76.5455H73.3817V94H70.8761V81.3693H70.7141L65.5664 93.9744H63.4869L58.3391 81.3608H58.1772V94H55.6715V76.5455ZM78.685 94H75.8896L82.1708 76.5455H85.2134L91.4947 94H88.6992L83.7646 79.7159H83.6282L78.685 94ZM79.1538 87.1648H88.2219V89.3807H79.1538V87.1648ZM105.007 82.0597C104.843 81.5426 104.621 81.0795 104.343 80.6705C104.07 80.2557 103.743 79.9034 103.363 79.6136C102.982 79.3182 102.547 79.0937 102.059 78.9403C101.576 78.7869 101.044 78.7102 100.465 78.7102C99.4819 78.7102 98.5955 78.9631 97.8058 79.4688C97.016 79.9744 96.391 80.7159 95.9308 81.6932C95.4762 82.6648 95.2489 83.8551 95.2489 85.2642C95.2489 86.679 95.479 87.875 95.9393 88.8523C96.3995 89.8295 97.0302 90.571 97.8313 91.0767C98.6325 91.5824 99.5444 91.8352 100.567 91.8352C101.516 91.8352 102.343 91.642 103.047 91.2557C103.757 90.8693 104.306 90.3239 104.692 89.6193C105.084 88.9091 105.28 88.0739 105.28 87.1136L105.962 87.2415H100.968V85.0682H107.828V87.054C107.828 88.5199 107.516 89.7926 106.891 90.8722C106.272 91.946 105.414 92.7756 104.317 93.3608C103.226 93.946 101.976 94.2386 100.567 94.2386C98.9876 94.2386 97.6012 93.875 96.408 93.1477C95.2205 92.4205 94.2944 91.3892 93.6296 90.054C92.9648 88.7131 92.6325 87.1222 92.6325 85.2812C92.6325 83.8892 92.8256 82.6392 93.212 81.5312C93.5984 80.4233 94.141 79.483 94.8398 78.7102C95.5444 77.9318 96.3711 77.3381 97.32 76.929C98.2745 76.5142 99.3171 76.3068 100.448 76.3068C101.391 76.3068 102.269 76.446 103.081 76.7244C103.9 77.0028 104.627 77.3977 105.263 77.9091C105.905 78.4205 106.436 79.0284 106.857 79.733C107.277 80.4318 107.561 81.2074 107.709 82.0597H105.007ZM111.172 94V76.5455H122.115V78.8125H113.805V84.1307H121.544V86.3892H113.805V91.733H122.217V94H111.172Z" fill="#777373"/>
</svg>
